<svg xmlns="http://www.w3.org/2000/svg" width="150" height="40" viewBox="0 0 150 40"><rect width="100%" height="100%" fill="#00F2A2"/><path fill="#000000" d="M45.415 23.94q.22 0 .39.17l1.06 1.15q-.88 1.09-2.16 1.67-1.29.58-3.09.58-1.61 0-2.89-.55-1.29-.55-2.2-1.53t-1.39-2.34q-.49-1.36-.49-2.97 0-1.63.52-2.98.52-1.36 1.47-2.34.94-.98 2.25-1.53 1.31-.54 2.9-.54 1.58 0 2.81.52 1.22.52 2.08 1.36l-.9 1.25q-.08.12-.2.21-.13.09-.35.09-.15 0-.31-.09-.16-.08-.35-.2-.19-.13-.44-.28t-.58-.28q-.33-.12-.76-.21-.44-.08-1.01-.08-.97 0-1.77.35-.81.34-1.39 1-.58.65-.9 1.6-.32.94-.32 2.15 0 1.22.35 2.17.34.95.93 1.6t1.39 1q.8.34 1.72.34.55 0 1-.06.44-.06.82-.19.37-.13.71-.34.33-.2.66-.5.1-.09.21-.14.11-.06.23-.06m2.94-11.45h2.47v14.86h-2.47zm5.02 4.6h2.48v10.26h-2.48zm2.82-2.99q0 .32-.13.6t-.34.49q-.22.21-.51.33-.29.13-.62.13-.32 0-.6-.13-.29-.12-.5-.33t-.33-.49q-.13-.28-.13-.6 0-.33.13-.62.12-.29.33-.5t.5-.34q.28-.12.6-.12.33 0 .62.12.29.13.51.34.21.21.34.5t.13.62m10.18 4.26-.65.9q-.11.14-.21.22-.11.08-.31.08-.19 0-.37-.12l-.43-.26q-.25-.14-.59-.26-.35-.11-.86-.11-.65 0-1.14.24-.49.23-.81.67-.33.44-.49 1.06-.16.63-.16 1.42 0 .82.18 1.46.17.64.5 1.07.33.44.8.66.47.23 1.06.23t.96-.15q.36-.14.61-.31.25-.18.44-.33.18-.14.41-.14.3 0 .45.23l.71.9q-.41.48-.89.81-.48.32-.99.51-.52.2-1.06.28-.55.08-1.09.08-.95 0-1.79-.36-.84-.35-1.47-1.03t-.99-1.67q-.37-.98-.37-2.24 0-1.13.33-2.1.32-.96.95-1.67.63-.7 1.56-1.1t2.14-.4q1.15 0 2.02.37.86.37 1.55 1.06m1.64-5.87h2.47V21h.46q.25 0 .4-.07.14-.06.29-.26l2.55-3.15q.16-.21.36-.32.19-.11.5-.11h2.26l-3.19 3.81q-.34.45-.74.69.21.15.38.35.16.2.31.43l3.42 4.98h-2.23q-.29 0-.5-.1-.21-.09-.35-.34l-2.62-3.89q-.14-.23-.29-.3t-.45-.07h-.56v4.7h-2.47zm19.45 1.76-.67 1.27q-.12.21-.25.3-.14.1-.34.1-.21 0-.45-.16-.25-.15-.59-.34t-.79-.35q-.46-.15-1.08-.15-.56 0-.98.14-.42.13-.7.37-.29.24-.43.57-.14.34-.14.74 0 .51.29.85.28.34.75.58t1.07.43 1.23.4q.63.22 1.23.51.6.28 1.07.71.47.44.76 1.07.28.63.28 1.53 0 .98-.33 1.84-.34.85-.98 1.48-.65.64-1.58 1-.93.37-2.13.37-.69 0-1.36-.13-.67-.14-1.28-.39-.62-.25-1.16-.6t-.96-.78l.79-1.29q.1-.14.26-.24.16-.09.34-.09.25 0 .54.2.29.21.69.46t.94.45q.53.21 1.28.21 1.15 0 1.78-.54.63-.55.63-1.57 0-.57-.28-.93-.29-.36-.76-.61-.47-.24-1.07-.41t-1.22-.37-1.22-.48-1.07-.73-.75-1.12q-.29-.68-.29-1.67 0-.79.32-1.54.31-.75.91-1.33t1.48-.93 2.02-.35q1.28 0 2.36.4t1.84 1.12m11.72.78h-6.42v4.01h5.06v2.07h-5.06v4.09h6.42v2.15h-9.12V12.89h9.12zm16.17 5.09q0 1.59-.52 2.94-.53 1.36-1.49 2.35t-2.31 1.54q-1.35.56-3 .56-1.64 0-2.99-.56-1.35-.55-2.31-1.54-.97-.99-1.5-2.35-.53-1.35-.53-2.94t.53-2.95q.53-1.35 1.5-2.34.96-.99 2.31-1.54 1.35-.56 2.99-.56 1.1 0 2.07.25.97.26 1.78.73.81.46 1.46 1.12.64.67 1.09 1.49t.69 1.78q.23.96.23 2.02m-2.75 0q0-1.19-.32-2.14-.32-.94-.91-1.6t-1.43-1.01q-.85-.35-1.91-.35t-1.9.35q-.85.35-1.44 1.01-.6.66-.92 1.6-.32.95-.32 2.14t.32 2.14q.32.94.92 1.59.59.66 1.44 1.01.84.35 1.9.35t1.91-.35q.84-.35 1.43-1.01.59-.65.91-1.59.32-.95.32-2.14"/></svg>